<?xml version="1.0" encoding="UTF-8"?>
<!DOCTYPE svg PUBLIC "-//W3C//DTD SVG 1.1//EN" "http://www.w3.org/Graphics/SVG/1.1/DTD/svg11.dtd">
<!-- Creator: CorelDRAW -->
<svg xmlns="http://www.w3.org/2000/svg" xml:space="preserve" width="1300px" height="250px" style="shape-rendering:geometricPrecision; text-rendering:geometricPrecision; image-rendering:optimizeQuality; fill-rule:evenodd; clip-rule:evenodd"
viewBox="0 0 1300 249.999"
 xmlns:xlink="http://www.w3.org/1999/xlink">
 <defs>
  <style type="text/css">
   <![CDATA[
    .fil7 {fill:none}
    .fil0 {fill:#0E9146}
    .fil3 {fill:#FEFEFE}
    .fil2 {fill:black}
    .fil10 {fill:#006CB1}
    .fil17 {fill:#028DAA}
    .fil4 {fill:#08AFE6}
    .fil1 {fill:#1F1A17}
    .fil15 {fill:#277F39}
    .fil16 {fill:#4CB2E8}
    .fil14 {fill:#4F4B4C}
    .fil8 {fill:#DA251D}
    .fil13 {fill:#E5EB14}
    .fil12 {fill:#ED1E23}
    .fil19 {fill:#F8B624}
    .fil6 {fill:#FEF400}
    .fil9 {fill:white}
    .fil5 {fill:black}
    .fil11 {fill:black;fill-rule:nonzero}
    .fil18 {fill:#F8B624;fill-rule:nonzero}
   ]]>
  </style>
 </defs>
 <g id="Layer_x0020_1">
  <metadata id="CorelCorpID_0Corel-Layer"/>
  <g id="_313376744">
   <g>
    <path id="_313371248" class="fil0" d="M148.034 118.225c-7.43977,0.243307 -15.4465,1.87559 -21.2079,6.89174 -2.77323,2.41417 -4.35945,5.07402 -5.4626,8.55473 -1.18701,3.74292 -1.72205,8.12245 -2.03386,12.0307 -0.170079,2.13189 -0.284646,4.16693 -0.675591,6.27993 -0.426378,2.29725 -3.60355,2.18622 -3.37441,4.15276 0.141732,1.22598 0.0507874,2.57362 2.8441,5.79804 0.928347,1.56614 2.34921,2.33386 4.06654,2.92559 2.92087,1.0063 9.68386,1.09134 12.6461,0.284646 3.16063,-0.861024 6.67678,-2.91614 9.45237,-4.66063 3.42756,-2.15197 7.51772,-6.53859 10.5461,-10.461 3.02835,-3.92362 6.22323,-7.963 11.9374,-10.0701 2.0752,-0.764174 3.37323,-0.755906 5.55709,-0.865749 1.02756,-0.0531496 2.81339,0.162992 3.93071,0.380315 1.11732,0.217323 1.41732,0.301181 2.4815,0.62126 1.06535,0.32126 1.51772,0.444095 1.67599,0.478347 0.158268,0.034252 -0.112205,-0.83504 -0.455906,-1.89213 -0.34252,-1.05709 -0.849213,-2.15079 -1.1941,-3.05315 -0.542126,-1.75394 -1.08071,-2.34095 -1.94055,-3.92953 -0.905906,-1.67599 -1.78465,-2.64803 -3.09685,-4.07717 -1.14567,-1.24606 -2.28307,-2.38465 -3.64488,-3.40394 -2.42953,-1.82008 -5.94567,-3.57756 -9.43938,-4.60276 -3.4937,-1.0252 -8.39056,-1.5189 -12.6118,-1.38189z"/>
    <path id="_313371128" class="fil1" d="M111.598 163.09c-0.0968505,-1.92402 2.74016,-1.92874 2.82166,-0.207874 0.0874016,1.83662 -2.7378,1.8874 -2.82166,0.207874zm1.02992 1.91929l-0.0980316 5.87599c-1.44567,-1.89331 -5.24882,-7.3441 -4.38898,-10.1232l1.66299 -3.42284c1.18819,-0.0177165 5.77678,-0.205512 6.54095,0.140551 1.22244,0.552756 1.95236,3.06614 1.69843,4.80945l-4.66772 8.58071 -0.0011811 -6.01772c0.68504,-0.461811 1.52717,-0.768898 1.48228,-1.9748 -0.0814961,-2.18977 -3.59646,-2.25709 -3.67559,0.0165354 -0.0519685,1.5 0.957875,1.24843 1.44685,2.11536zm-4.74449 -1.45512l-21.1394 -0.562205c7.60748,-0.936615 8.7378,-9.17599 12.3106,-10.1835 0.673229,-0.190158 3.85866,0.20315 5.00551,0.238583 1.50118,0.0448819 1.53189,0.570473 3.24803,2.32205 1.06063,1.08307 2.20748,1.44803 1.12087,3.33898 -0.918898,1.60039 -0.807875,2.95158 -0.54567,4.84607zm12.3898 -11.3504c1.2626,0.0307087 2.44843,0.126378 3.72166,0.0838583 1.04291,-0.034252 2.58425,-0.336614 3.42874,-0.314173 1.82244,0.0496063 3.02599,2.15315 3.93544,3.58229l8.3941 6.65197c-0.633071,0.525591 -1.42205,0.852756 -2.17441,1.16339 -4.20236,1.73858 -10.0547,2.85473 -14.3457,1.1185l-4.61929 -2.25354c-0.174803,-1.25197 -0.0248032,-1.91929 -0.520866,-3.0815 -1.14331,-2.67874 -2.37165,-2.18858 0.34252,-5.00197 0.661418,-0.686221 1.26969,-1.24724 1.8378,-1.94882zm-10.4268 -17.5347l0.848032 -0.0165354 5.36457 0.00236221 -0.00236221 22.2532 -6.21024 -0.011811 0 -22.2272zm-36.065 18.3862c8.98229,-0.0543307 11.5996,-3.40394 15.6284,-3.89646 1.02402,-0.125197 1.5874,0.549213 2.66103,1.09134l5.65512 2.17914c-3.47835,3.09685 -5.3374,9.55394 -11.5087,9.75355 -3.10158,0.0992127 -11.5701,-7.62284 -12.4358,-9.12756zm55.441 -1.40197c1.87677,-0.838583 3.54803,-1.1315 5.39292,-2.10827 2.62677,-1.3937 2.24764,-1.60276 5.43898,-0.288189l12.2256 3.02362c-0.659056,1.31102 -8.99528,9.17363 -11.7602,9.1441 -6.04961,-0.0625985 -7.77402,-6.5941 -11.2973,-9.77127zm-67.4363 -9.4878c0.688583,-0.364961 3.10158,-0.964961 4.14803,-1.39134 6.01063,-2.44606 8.6563,-5.79922 12.9402,-1.06417 1.77992,1.96772 2.10236,2.08701 4.06299,3.85512 2.75315,2.4815 3.9567,3.16299 5.78504,4.76221l-7.40906 2.83347c-1.60512,0.507874 -7.43268,1.82599 -8.82048,0.648426l-2.54646 -2.5878c-2.13898,-2.2748 -5.4437,-5.54174 -8.16024,-7.05591zm76.1256 5.32914c2.45433,-1.57441 3.77599,-2.93268 5.67638,-4.79646 6.53268,-6.40748 6.18544,-7.74095 12.8055,-4.34646 4.1067,2.10591 5.80748,2.29252 7.26024,2.99055 -4.84016,3.81733 -3.85276,3.3 -7.81654,7.12559 -1.94646,1.87913 -1.85669,4.8378 -10.8803,1.88976 -0.934253,-0.304725 -6.5752,-2.53937 -7.04528,-2.86299zm-91.1528 -7.03819c0.578741,-0.69567 1.96417,-1.80236 2.84292,-2.48032 5.33504,-4.11614 11.9563,-8.39528 19.1398,-5.68347 2.19685,0.829134 5.30433,2.84173 6.37914,4.14095l-13.4811 4.78819c-1.48228,0.266929 -2.1437,-0.360236 -3.42756,-0.807875 -4.79055,-1.67008 -7.22126,-0.811418 -11.4532,0.0425197zm104.356 -5.18622c1.79882,-0.948426 2.94803,-2.63386 6.39804,-3.89764 5.40709,-1.98307 10.9004,0.618898 15.1134,3.63898 0.830315,0.594095 4.96063,3.76299 5.50276,4.63937l-7.96182 -0.77126c-2.36575,0.364961 -4.55079,2.00079 -6.76182,1.47638 -4.32402,-1.02638 -7.77993,-3.77362 -10.5839,-4.41614 -0.153543,-0.0354331 -0.825591,-0.154725 -0.864567,-0.167717 -0.468898,-0.154725 -0.0814961,-0.00472441 -0.509055,-0.240945l-0.333071 -0.261024zm-105.892 5.20158c0.557481,-5.8689 4.3689,-10.3134 7.99134,-13.8295 2.34685,-2.27835 4.42677,-3.42638 7.60867,-1.82362 1.69134,0.851575 4.1315,4.2626 5.07874,5.86063l-11.9847 3.26575c-2.28898,0.955512 -8.10119,6.20079 -8.6941,6.52678zm114.7 -10.5709c0.879922,-1.6689 3.18662,-5.05866 4.963,-5.91142 1.17992,-0.566929 3.4252,-0.927166 4.49646,-0.249213 4.28622,2.71063 9.85631,9.81379 10.3028,16.0335l-3.9 -3.42284c-4.52244,-3.56693 -9.31418,-6.79961 -15.8622,-6.45zm-85.2544 -6.93071c1.84488,-0.230315 3.5504,-0.467717 5.32677,-0.814961 2.64567,-0.518504 3.70866,-1.0311 5.04331,-0.0862205 2.7248,1.92992 4.62874,3.03071 6.13465,6.0567 1.77402,3.56929 1.45394,6.55276 0.944882,10.7646 -0.616536,5.10355 -0.579922,5.96221 0.54567,10.6252l-6.87166 -4.52599c-0.925985,-0.718111 -5.47323,-4.7563 -5.64922,-5.40237 -0.370866,-1.36654 1.17165,-7.5815 -4.27205,-15.0213 -0.389764,-0.532677 -0.916536,-1.02165 -1.20236,-1.59567zm-15.9898 -0.0295276c0.461811,-0.375591 2.61732,-1.36181 3.15827,-1.58386 1.14921,-0.472441 2.81575,-1.19646 4.07481,-1.35827l5.31851 2.79803c1.49291,0.218504 2.14488,-0.00708662 3.00945,1.04291 0.472441,0.574016 1.25906,1.62874 1.7126,2.35394 2.06575,3.30709 3.80433,7.83071 3.32126,12.7134 -3.3874,-2.95748 -6.35079,-6.03071 -10.6618,-7.55552 -2.10945,-0.746457 -1.50236,-0.618898 -2.64331,-2.06102 -2.2689,-2.86654 -3.10748,-5.47914 -7.69489,-5.95512l0.405118 -0.394488zm88.2627 13.7114c-0.180709,-4.09843 1.65,-8.80867 3.44528,-11.5051 4.26969,-6.4193 2.25354,-0.15 9.00237,-6.06496l7.96654 3.31299c-3.10984,1.0748 -3.88701,0.924804 -5.73544,3.46772 -1.86142,2.56181 -2.11536,3.91299 -4.28504,4.69252 -2.26299,0.812599 -4.2189,2.0941 -5.65394,3.33898l-4.67599 4.2189 -0.0637796 -1.46102zm-12.8173 12.1122c2.64685,-7.39134 -1.64882,-14.1402 1.27559,-21.0378 1.35591,-3.19961 3.42992,-4.41969 5.89489,-6.28701 0.960237,-0.727559 0.923623,-0.637796 2.25591,-0.408662 2.99292,0.516142 4.59095,0.999213 7.92048,1.14567 -0.764174,1.03347 -1.45512,1.89213 -2.10473,3.0248 -0.58937,1.02874 -1.16221,2.06221 -1.64646,3.25866 -0.98504,2.43662 -1.62874,5.3126 -1.62874,8.19213l-1.84725 4.34764c-1.08307,1.06063 -1.86851,1.73268 -3.07914,2.90551 -1.49882,1.45039 -5.01378,3.98977 -7.04056,4.85906zm-30.0473 3.44292c-2.64331,0.00354331 -9.15473,-0.689764 -10.2449,-2.42717 -1.87441,-2.98465 -1.25787,-7.47756 -0.823229,-11.1224 0.500788,-4.20118 0.738189,-7.28622 -1.06417,-10.8709 -2.13307,-4.24488 -5.36221,-5.24055 -6.11339,-6.33189l9.88819 2.78977c2.15906,1.41378 4.26614,3.91654 5.55827,6.83741 2.18858,4.94528 2.66457,10.6429 2.23937,16.187 -0.420473,5.48859 -0.71693,2.85827 0.559843,4.93819zm17.2453 -0.793701c0.0271654,-0.0566929 0.0744095,-0.122835 0.101575,-0.159449 0.536221,-0.732284 0.529134,-0.475985 0.700394,-0.887008 0.184252,-0.440551 -0.240945,-3.15118 -0.305906,-4.11024 -0.853938,-12.5504 2.8937,-26.2169 19.0016,-25.6051l-0.996851 0.82441c-6.46063,4.80355 -6.92008,8.87953 -5.92087,17.3032 0.336614,2.84292 0.811418,9.32953 -1.42323,10.7894 -2.34213,1.53071 -8.00906,1.94882 -11.1567,1.84488zm46.3004 -29.7697c-2.20394,-1.26732 -4.97953,-2.59134 -7.7693,-3.3626l-3.85984 -12.065c0.0874016,2.65394 1.43386,5.14607 0.225591,8.09528 -1.00512,2.45551 -3.82796,2.50748 -6.91063,2.28898 -6.6,-0.468898 -12.8941,-4.87205 -22.6063,1.20709 -3.40984,2.13425 -7.21772,5.863 -9.04253,9.35316 -1.30276,2.48977 -1.47284,3.83504 -2.36457,6.60237l-5.35276 0.0389764c-1.97126,-4.89803 -2.66103,-7.9193 -6.6437,-11.5441 -2.79921,-2.54764 -6.51142,-5.45197 -11.7366,-6.45355 -6.68859,-1.2815 -10.1303,1.12913 -16.0606,1.62402 -9.74528,0.811418 -6.81969,-5.83937 -6.43465,-10.3854 -3.43583,5.04567 -5.49213,6.60355 -3.85748,12.215l-7.72323 3.31536c-6.37441,3.23622 -13.1799,11.5559 -13.376,19.7941 3.51142,-1.16693 6.02008,-2.29488 9.87166,-2.00669 3.66851,0.274016 6.41103,1.82008 8.64449,3.3437 1.91693,1.3063 4.76929,3.97205 6.34134,5.63386l5.79213 5.97166c1.94646,1.92638 3.91418,3.82677 6.4878,5.49331 2.4874,1.61102 4.48701,2.89252 7.61457,4.1563 4.65118,1.87913 10.1917,2.74016 15.2339,1.16929 1.60748,-0.500788 2.76614,-1.21654 4.02402,-1.67244 0.679134,1.37008 3.61536,7.04056 4.93347,7.3004 4.65,-5.26418 3.94725,-6.39804 5.36339,-8.63977 3.30236,1.65354 4.85315,2.73543 8.78623,3.01772 6.40276,0.459449 12.9248,-2.48268 17.7012,-5.9315 3.59646,-2.59725 6.36733,-5.3752 9.24095,-8.50394 0.523229,-0.569292 0.842126,-1.08189 1.3689,-1.63583 0.539764,-0.568111 0.890552,-0.825591 1.37953,-1.39134 6.18307,-7.15276 13.8272,-12.0768 23.8488,-7.00276 -1.36299,-5.263 -1.55315,-8.32205 -4.31929,-12.1394 -0.930709,-1.28622 -1.53307,-1.92638 -2.56181,-2.99528 -1.80473,-1.87559 -3.60118,-3.37559 -6.23859,-4.89095z"/>
    <polygon id="_313370960" class="fil2" points="113.001,25.0004 120.152,27.313 126.869,29.8453 134.499,32.9339 141.021,35.8595 147.952,39.1855 154.163,42.4158 161.799,46.891 168.269,51.1193 175.439,56.2902 180.441,60.3 186.905,65.8784 192.767,71.5796 203.184,83.5276 212.832,97.1694 212.83,104.643 212.484,111.775 211.885,119.942 211.101,127.011 210.06,134.59 208.889,141.46 206.966,150.06 204.919,157.482 202.187,165.858 199.896,171.826 196.554,179.66 192.912,186.962 184.697,200.501 174.626,213.838 167.472,216.144 160.541,218.021 152.542,219.979 145.534,221.423 137.961,222.781 131.026,223.795 122.202,224.635 114.467,224.995 105.61,225 99.1902,224.679 90.6615,223.941 82.5485,222.754 67.0548,219.173 51.1807,213.774 46.7622,207.725 42.8256,201.754 38.4792,194.797 34.9335,188.62 31.2933,181.88 28.1788,175.638 24.6484,167.556 21.9142,160.356 19.1717,151.984 17.4957,145.818 15.5658,137.529 14.1945,129.493 12.8339,113.74 13.0949,97.0666 17.5169,91.0217 22.0146,85.454 27.3284,79.1965 32.1437,73.9347 37.4681,68.4119 42.4784,63.5386 49.1209,57.7052 55.1658,52.8957 62.328,47.7154 67.7115,44.2264 75.0473,39.8398 82.3134,36.0614 96.9662,29.9067 "/>
    <polygon id="_313370816" class="fil3" points="112.974,28.3807 119.075,30.3543 125.682,32.8441 133.22,35.8961 139.65,38.7803 146.496,42.065 152.587,45.2339 160.083,49.6276 166.425,53.7709 173.467,58.8496 178.36,62.7709 184.706,68.25 190.403,73.7894 200.626,85.5154 209.59,98.1886 209.588,104.565 209.247,111.58 208.656,119.648 207.882,126.617 206.855,134.102 205.706,140.841 203.817,149.284 201.812,156.559 199.128,164.785 196.888,170.621 193.606,178.313 190.065,185.411 182.004,198.697 172.649,211.087 166.545,213.056 159.728,214.901 151.825,216.835 144.918,218.258 137.437,219.599 130.635,220.596 121.971,221.42 114.39,221.772 105.69,221.778 99.4123,221.463 91.0382,220.739 83.1532,219.585 67.9489,216.071 53.2016,211.055 49.4327,205.895 45.5599,200.02 41.2666,193.148 37.7705,187.058 34.1752,180.402 31.1197,174.28 27.6543,166.345 24.9744,159.288 22.2803,151.065 20.6421,145.035 18.7465,136.895 17.4142,129.085 16.0784,113.627 16.3205,98.1367 20.0941,92.9788 24.5185,87.5032 29.7673,81.3213 34.5142,76.1351 39.7736,70.6796 44.687,65.8996 51.2091,60.1713 57.1335,55.4575 64.1693,50.3705 69.4335,46.9583 76.6371,42.652 83.6989,38.9788 98.0776,32.9386 "/>
    <polygon id="_313370696" class="fil4" points="112.947,31.7622 117.998,33.3957 124.497,35.8441 131.941,38.8583 138.278,41.7 145.038,44.9445 151.011,48.0508 158.368,52.3642 164.581,56.4237 171.496,61.4103 176.277,65.243 182.508,70.6205 188.04,76.0004 198.067,87.502 206.347,99.2068 206.345,104.487 206.009,111.385 205.426,119.355 204.664,126.222 203.648,133.616 202.523,140.222 200.668,148.508 198.704,155.636 196.069,163.713 193.879,169.417 190.658,176.967 187.22,183.86 179.313,196.892 170.672,208.336 165.618,209.966 158.914,211.781 151.108,213.692 144.301,215.094 136.912,216.418 130.244,217.395 121.741,218.204 114.313,218.549 105.77,218.555 99.6343,218.247 91.415,217.537 83.7567,216.416 68.843,212.968 55.2225,208.336 52.102,204.064 48.2929,198.287 44.0528,191.498 40.6075,185.498 37.0571,178.923 34.0618,172.921 30.6603,165.134 28.0347,158.219 25.389,150.145 23.7874,144.25 21.9284,136.261 20.6339,128.676 19.324,113.513 19.5473,99.2068 22.6713,94.9371 27.0225,89.5512 32.2075,83.4449 36.8847,78.3343 42.0792,72.9461 46.8969,68.2607 53.2973,62.6386 59.1012,58.0205 66.0095,53.0244 71.1556,49.689 78.2256,45.463 85.0843,41.8949 99.1879,35.9717 "/>
    <g>
     <g>
      <g>
       <g>
        <path id="_313370672" class="fil2" d="M117.138 160.714c-0.966142,-1.12087 -1.97835,-2.44843 -2.51221,-3.83268 -0.325984,-0.84567 -0.375591,-1.4752 -0.477166,-2.34685 -0.0543307,-0.474803 0.022441,-0.930709 0.25748,-1.35 0.509055,-0.904725 1.52244,-1.27677 2.3126,-1.87205 0.409843,-0.308268 0.71693,-0.648426 0.812599,-1.16811 0.380315,-2.05039 0.499607,-4.12323 0.666142,-6.19725 0.32126,-4.03819 0.840945,-8.33859 2.06811,-12.2091 1.14567,-3.61536 2.81811,-6.40985 5.70118,-8.91969 5.90906,-5.1437 14.0669,-6.84095 21.7158,-7.09016 1.5248,-0.0496063 3.05788,-0.0188976 4.5815,0.0791339 2.73307,0.174803 5.65512,0.562205 8.28662,1.33465 3.33189,0.977953 6.92835,2.65866 9.69804,4.73268 1.38662,1.03819 2.58662,2.23228 3.75473,3.50433 1.28622,1.39961 2.30079,2.55118 3.2126,4.2378 0.347244,0.641339 0.724016,1.26614 1.06654,1.90866 0.373229,0.696851 0.668504,1.3937 0.927166,2.14134 0.356693,1.03583 0.857481,2.01614 1.19882,3.06732 0.144095,0.442914 0.291732,0.891733 0.413386,1.34055 0.142913,0.531496 0.283465,1.22362 -0.362599,1.52599 -0.212599,0.100394 -0.381496,0.0944882 -0.539764,0.0602363 -0.566929,-0.122835 -1.18228,-0.325984 -1.73858,-0.493701 -0.387402,-0.11811 -0.777166,-0.236221 -1.17047,-0.336614 -0.407481,-0.103937 -0.819686,-0.185433 -1.23189,-0.265748 -0.578741,-0.112205 -1.17047,-0.197244 -1.75748,-0.262205 -0.63189,-0.0708662 -1.34055,-0.137008 -1.97599,-0.105118 -0.925985,0.0472441 -1.87205,0.0696851 -2.79095,0.187795 -0.881103,0.112205 -1.69252,0.323622 -2.52402,0.629528 -5.27126,1.9441 -8.27363,5.5252 -11.5772,9.80434 -1.06417,1.37953 -2.18386,2.72244 -3.35079,4.01811 -1.17402,1.30158 -2.40473,2.56772 -3.70276,3.74764 -1.14803,1.04291 -2.38583,2.05984 -3.70158,2.88662 -2.89961,1.82126 -6.3567,3.85276 -9.67205,4.7563 -0.944882,0.25748 -1.98425,0.382677 -2.95984,0.462992 -1.19528,0.0980316 -2.40354,0.126378 -3.60236,0.102756 -1.20118,-0.022441 -2.41299,-0.0956693 -3.60591,-0.245669 -0.976772,-0.121654 -2.02677,-0.3 -2.95866,-0.620079 -1.86024,-0.641339 -3.42047,-1.50236 -4.46103,-3.21378z"/>
       </g>
       <path id="_313370360" class="fil0" d="M147.709 116.534c-7.43977,0.243307 -15.4465,1.87559 -21.2079,6.89056 -2.77323,2.41417 -4.35827,5.07402 -5.4626,8.55591 -1.18583,3.74292 -1.72087,8.12126 -2.03268,12.0307 -0.170079,2.13189 -0.285827,4.16575 -0.676772,6.27874 -0.425197,2.29725 -3.60236,2.18622 -3.37441,4.15276 0.142913,1.22717 0.0519685,2.5748 2.8441,5.79922 0.929528,1.56496 2.34921,2.33268 4.06654,2.92441 2.92205,1.0063 9.68386,1.09134 12.6461,0.284646 3.16063,-0.861024 6.67678,-2.91614 9.45355,-4.65945 3.42756,-2.15315 7.51772,-6.53859 10.5461,-10.4622 3.02835,-3.92362 6.22205,-7.96182 11.9374,-10.0689 2.07402,-0.765355 3.37323,-0.755906 5.55591,-0.86693 1.02874,-0.0519685 2.81339,0.164173 3.93071,0.381496 1.11732,0.216142 1.41732,0.3 2.48268,0.62126 1.06417,0.32126 1.51772,0.444095 1.67599,0.478347 0.158268,0.034252 -0.113386,-0.83504 -0.455906,-1.89213 -0.343701,-1.05827 -0.849213,-2.15197 -1.19528,-3.05433 -0.540945,-1.75394 -1.08071,-2.33977 -1.94055,-3.92953 -0.905906,-1.67599 -1.78465,-2.64803 -3.09685,-4.07599 -1.14567,-1.24724 -2.28307,-2.38583 -3.6437,-3.40512 -2.43071,-1.8189 -5.94685,-3.57638 -9.43938,-4.60276 -3.4937,-1.0252 -8.39056,-1.5189 -12.613,-1.38071z"/>
       <path id="_313370216" class="fil5" d="M117.842 150.416c0.379134,0.400394 0.444095,0.261024 1.23543,0.261024l1.02756 -0.0708662c0.616536,-0.022441 1.62992,0.0767717 2.18504,-0.0106299 0.409843,-0.0649607 0.622441,-0.0472441 1.04528,-0.0519685 0.794882,-0.0106299 2.75788,-0.558662 3.23268,-0.426378 0.131102,0.0366142 0.277559,0.0992127 0.402756,0.15 2.63504,1.07244 5.09764,6.72048 7.82481,8.52756 2.41299,1.59921 3.53977,1.59567 6.44764,2.31142l0.216142 -0.338977c-0.318898,-0.540945 -0.37441,-0.369685 -0.957875,-0.548032 -2.97756,-0.912993 -2.77205,-0.382677 -5.54055,-2.20158 -1.63701,-1.0748 -3.80551,-5.00315 -5.57126,-6.74292 -0.25748,-0.253937 -0.426378,-0.539764 -0.720473,-0.785434l-0.874016 -0.699213c0.274016,-0.124016 0.741733,-0.210236 1.05473,-0.315355 0.335433,-0.111024 0.670867,-0.238583 1.01339,-0.356693 0.576378,-0.200788 1.43386,-0.553937 1.98071,-0.827953l3.63189 -1.91693c0.338977,0.0188976 0.832678,0.15 1.17992,0.204331 3.66851,0.577559 8.06221,3.15945 11.9362,3.55394l5.35748 0.26811 0.21378 -0.414567 -0.23504 -0.312992c-0.914174,-0.10748 -2.21102,0.0259843 -3.1441,-0.0814961 -0.517323,-0.0602363 -1.09724,-0.0318898 -1.89095,-0.167717 -3.90355,-0.669685 -6.56221,-1.9311 -10.2106,-3.15355 -0.69567,-0.233858 -1.43268,-0.370866 -2.15315,-0.520866 0.138189,-0.216142 0.544489,-0.427559 0.793701,-0.609449 0.47126,-0.344882 4.96181,-4.46339 5.27953,-4.77992 0.964961,-0.959056 1.91929,-1.9063 2.88307,-2.86536 0.48189,-0.478347 1.02638,-0.883465 1.51063,-1.36417l1.4752 -1.39724c0.806693,-0.0944882 1.69725,-0.0271654 2.44843,0.124016 1.85551,0.370866 3.9815,1.35 5.74961,2.06221l7.44213 2.99055 0.335433 -0.214961c-0.0011811,-0.649607 -0.543307,-0.67441 -1.53189,-1.07008 -0.618898,-0.248032 -1.22126,-0.522048 -1.84134,-0.761811 -2.49803,-0.966142 -4.9937,-1.92874 -7.47166,-2.94331 -1.65118,-0.675591 -2.5311,-0.850394 -4.24961,-0.972048 0.597638,-0.753544 2.32677,-1.90512 3.13937,-2.51929 0.93189,-0.705119 2.81457,-1.55079 3.91063,-1.84252 3.0815,-0.819686 4.35945,-0.765355 7.44095,-0.0011811 2.18032,0.540945 4.15158,1.43622 6.18544,2.44725 0.660237,0.328347 1.24488,0.672048 1.87677,0.999213 1.36654,0.708662 4.05473,2.54173 5.12008,3.50788 0.505512,0.458268 1.0252,0.884646 1.50827,1.36536 0.747638,0.742914 0.592914,0.676772 1.50709,1.39488l0.259843 -0.274016 0 -0.0814961c-0.0271654,-0.25748 -0.126378,-0.366142 -0.324803,-0.562205 -0.505512,-0.500788 -0.976772,-1.09134 -1.50945,-1.56969 -2.13898,-1.92402 -4.62638,-3.71339 -7.24843,-5.00788 -2.01969,-0.996851 -3.48544,-1.76457 -5.66457,-2.48622 -1.59921,-0.530315 -3.33189,-0.961418 -5.01851,-1.08425 -0.650788,-0.0472441 -1.34055,0.022441 -1.99134,0.0696851 0.549213,-0.836221 1.07953,-1.70669 1.6063,-2.56536 0.553937,-0.904725 1.03701,-1.65709 1.80827,-2.43189 0.601181,-0.604725 1.83425,-1.29449 2.67874,-1.49882 0.62126,-0.15 1.22362,-0.178347 1.84134,-0.284646 0.979134,-0.170079 0.719292,-0.0236221 1.67717,-0.445276l0.0106299 -0.223228 -0.237402 -0.242126c-0.311811,-0.153543 -3.57047,0.448819 -4.00512,0.62126 -2.93858,1.16339 -4.08189,3.55394 -5.62678,6.07323 -0.33189,0.540945 -0.516142,1.14213 -1.11142,1.28386 -3.32835,0.786615 -5.00788,2.14134 -7.57796,4.13386l-3.69331 3.35551c0,-1.87205 -0.011811,-3.60355 0.290551,-5.37284 0.375591,-2.19331 1.0689,-4.39488 2.18268,-6.29055 0.609449,-1.03937 2.79213,-3.96024 3.57284,-5.0563l-0.34252 -0.340158c-0.538583,0.145276 -2.30079,2.7437 -2.69646,3.33425 -0.928347,1.38425 -1.57323,2.16969 -2.22402,3.7937 -0.752363,1.87913 -1.02284,3.41929 -1.37362,5.38819 -0.225591,1.26732 -0.0897638,4.74922 -0.164173,5.15788 -0.0696851,0.379134 -3.68858,3.69921 -4.2378,4.24607 -0.479528,0.477166 -1.0441,0.895276 -1.51063,1.36417 -0.452362,0.457087 -0.969686,0.908268 -1.4752,1.32992 -0.529134,0.441733 -1.02874,0.872835 -1.58032,1.29567l-3.6189 2.13307c0.229134,-0.960237 0.883465,-1.74921 0.959056,-3.82205l0.0696851 -1.09016c-0.00236221,-0.437008 0.0708662,-0.708662 0.0696851,-1.15866l0.00236221 -1.77756c-0.00944882,-0.264567 -0.0649607,-0.274016 -0.0744095,-0.539764 -0.0141732,-0.379134 0.0200788,-0.785434 0.00590552,-1.16457l-0.194882 -3.42284c-0.111024,-0.692126 -0.0129921,-3.81378 -0.0141732,-4.76103 -0.0011811,-0.688583 0.11811,-1.48819 0.245669,-2.1437 0.232677,-1.18583 0.915355,-2.19331 1.6063,-3.17835 0.315355,-0.45 0.794882,-0.875197 1.09961,-1.29567 0.511418,-0.705119 4.04292,-3.79961 4.95945,-4.64292l-0.240945 -0.329528c-0.605906,-0.0165354 -0.733465,0.46063 -1.17638,0.784252 -0.337795,0.248032 -0.63189,0.551575 -0.975591,0.804331 -0.592914,0.437008 -1.37008,1.1374 -1.89685,1.66181 -1.20473,1.19646 -2.31496,2.32795 -3.21142,3.83504 -1.16339,1.95945 -1.16457,3.55512 -1.16457,5.8689 0,0.817323 -0.0980316,2.7815 0.0271654,3.45236 0.100394,0.536221 0.00472441,1.10551 0.0956693,1.67835 0.0366142,0.227953 0.0153543,0.625985 0.0141732,0.872835l0.133465 2.46024c0.0897638,0.764174 0.0295276,1.82717 -0.0602363,2.59134l-0.0779528 1.69725c-0.0236221,0.216142 -0.0897638,0.542126 -0.125197,0.761811 -0.184252,1.15039 -0.400394,1.60276 -0.830315,2.65394 -0.305906,0.745276 -0.114567,0.590552 -0.846851,0.93189 -2.65512,1.24016 -5.63859,1.89095 -8.55945,1.99843l-1.71378 0.0708662c-0.622441,0 -1.12323,0.0696851 -1.71496,0.068504 -0.579922,-0.0011811 -1.20236,-0.186614 -1.30512,0.441733l0 0.0472441z"/>
      </g>
      <polygon id="_313370096" class="fil2" points="180.771,137.908 181.634,140.149 179.381,139.517 "/>
     </g>
     <g>
      <g>
       <g>
        <path id="_313370000" class="fil2" d="M108.855 160.714c0.966142,-1.12087 1.97953,-2.44843 2.51339,-3.83268 0.325984,-0.84567 0.375591,-1.4752 0.475985,-2.34685 0.0555118,-0.474803 -0.0212599,-0.930709 -0.256299,-1.35 -0.509055,-0.904725 -1.52362,-1.27677 -2.31378,-1.87205 -0.408662,-0.308268 -0.715748,-0.648426 -0.811418,-1.16811 -0.380315,-2.05039 -0.500788,-4.12323 -0.666142,-6.19725 -0.322441,-4.03819 -0.840945,-8.33859 -2.06811,-12.2091 -1.14567,-3.61536 -2.81811,-6.40985 -5.70118,-8.91969 -5.90906,-5.1437 -14.0681,-6.84095 -21.7158,-7.09016 -1.52599,-0.0496063 -3.05788,-0.0188976 -4.5815,0.0791339 -2.73425,0.174803 -5.65512,0.562205 -8.28662,1.33465 -3.33189,0.977953 -6.92835,2.65866 -9.69804,4.73268 -1.3878,1.03819 -2.58662,2.23228 -3.75473,3.50433 -1.28622,1.39961 -2.30079,2.55118 -3.2126,4.2378 -0.347244,0.641339 -0.724016,1.26614 -1.06772,1.90866 -0.372047,0.696851 -0.668504,1.3937 -0.925985,2.14134 -0.357874,1.03583 -0.857481,2.01614 -1.19882,3.06732 -0.144095,0.442914 -0.291732,0.891733 -0.413386,1.34055 -0.144095,0.531496 -0.283465,1.22362 0.362599,1.52599 0.212599,0.100394 0.381496,0.0944882 0.538583,0.0602363 0.568111,-0.122835 1.18347,-0.325984 1.73976,-0.493701 0.387402,-0.11811 0.777166,-0.236221 1.17047,-0.336614 0.406299,-0.103937 0.819686,-0.185433 1.23071,-0.265748 0.579922,-0.112205 1.17165,-0.197244 1.75866,-0.262205 0.63189,-0.0708662 1.34055,-0.137008 1.97599,-0.105118 0.925985,0.0472441 1.87087,0.0696851 2.79095,0.187795 0.881103,0.112205 1.69252,0.323622 2.52402,0.629528 5.27126,1.9441 8.27363,5.5252 11.5772,9.80434 1.06417,1.37953 2.18386,2.72244 3.35079,4.01811 1.17402,1.30158 2.40473,2.56772 3.70276,3.74764 1.14685,1.04291 2.38583,2.05984 3.70158,2.88662 2.89961,1.82126 6.3567,3.85276 9.67205,4.7563 0.944882,0.25748 1.98425,0.382677 2.95984,0.462992 1.19528,0.0980316 2.40354,0.126378 3.60236,0.102756 1.20118,-0.022441 2.41299,-0.0956693 3.60591,-0.245669 0.975591,-0.121654 2.02677,-0.3 2.95866,-0.620079 1.86024,-0.641339 3.41929,-1.50236 4.45985,-3.21378z"/>
       </g>
       <path id="_313369688" class="fil0" d="M78.2847 116.534c7.44095,0.243307 15.4476,1.87559 21.2079,6.89056 2.77323,2.41417 4.35945,5.07402 5.46378,8.55591 1.18583,3.74292 1.72087,8.12126 2.03268,12.0307 0.170079,2.13189 0.284646,4.16575 0.676772,6.27874 0.425197,2.29725 3.60236,2.18622 3.37441,4.15276 -0.142913,1.22717 -0.0519685,2.5748 -2.84528,5.79922 -0.928347,1.56496 -2.34803,2.33268 -4.06536,2.92441 -2.92205,1.0063 -9.68386,1.09134 -12.6473,0.284646 -3.15945,-0.861024 -6.67559,-2.91614 -9.45237,-4.65945 -3.42756,-2.15315 -7.51772,-6.53859 -10.5461,-10.4622 -3.02835,-3.92362 -6.22205,-7.96182 -11.9374,-10.0689 -2.07402,-0.765355 -3.37323,-0.755906 -5.55591,-0.86693 -1.02874,-0.0519685 -2.81339,0.164173 -3.93071,0.381496 -1.11732,0.216142 -1.41732,0.3 -2.48268,0.62126 -1.06417,0.32126 -1.51772,0.444095 -1.67599,0.478347 -0.158268,0.034252 0.113386,-0.83504 0.455906,-1.89213 0.343701,-1.05827 0.849213,-2.15197 1.1941,-3.05433 0.542126,-1.75394 1.08189,-2.33977 1.94055,-3.92953 0.907087,-1.67599 1.78583,-2.64803 3.09803,-4.07599 1.14449,-1.24724 2.28307,-2.38583 3.6437,-3.40512 2.43071,-1.8189 5.94685,-3.57638 9.43938,-4.60276 3.4937,-1.0252 8.39056,-1.5189 12.6118,-1.38071z"/>
       <path id="_313369544" class="fil5" d="M108.151 150.416c-0.377953,0.400394 -0.442914,0.261024 -1.23543,0.261024l-1.02638 -0.0708662c-0.616536,-0.022441 -1.62992,0.0767717 -2.18504,-0.0106299 -0.409843,-0.0649607 -0.622441,-0.0472441 -1.04646,-0.0519685 -0.793701,-0.0106299 -2.75669,-0.558662 -3.2315,-0.426378 -0.131102,0.0366142 -0.277559,0.0992127 -0.403937,0.15 -2.63386,1.07244 -5.09646,6.72048 -7.82363,8.52756 -2.41299,1.59921 -3.53977,1.59567 -6.44764,2.31142l-0.216142 -0.338977c0.318898,-0.540945 0.373229,-0.369685 0.957875,-0.548032 2.97638,-0.912993 2.77205,-0.382677 5.54055,-2.20158 1.63701,-1.0748 3.80551,-5.00315 5.57008,-6.74292 0.258662,-0.253937 0.427559,-0.539764 0.720473,-0.785434l0.875197 -0.699213c-0.275197,-0.124016 -0.741733,-0.210236 -1.05473,-0.315355 -0.335433,-0.111024 -0.670867,-0.238583 -1.01339,-0.356693 -0.576378,-0.200788 -1.43386,-0.553937 -1.98189,-0.827953l-3.63071 -1.91693c-0.338977,0.0188976 -0.833859,0.15 -1.17992,0.204331 -3.66851,0.577559 -8.06221,3.15945 -11.9362,3.55394l-5.35866 0.26811 -0.21378 -0.414567 0.236221 -0.312992c0.914174,-0.10748 2.21102,0.0259843 3.1441,-0.0814961 0.517323,-0.0602363 1.09724,-0.0318898 1.89095,-0.167717 3.90355,-0.669685 6.56221,-1.9311 10.2106,-3.15355 0.69567,-0.233858 1.43268,-0.370866 2.15315,-0.520866 -0.138189,-0.216142 -0.544489,-0.427559 -0.793701,-0.609449 -0.47126,-0.344882 -4.96181,-4.46339 -5.28071,-4.77992 -0.96378,-0.959056 -1.91811,-1.9063 -2.88189,-2.86536 -0.48189,-0.478347 -1.02756,-0.883465 -1.51063,-1.36417l-1.47638 -1.39724c-0.805512,-0.0944882 -1.69606,-0.0271654 -2.44725,0.124016 -1.85551,0.370866 -3.9815,1.35 -5.74961,2.06221l-7.44331 2.99055 -0.334252 -0.214961c0.0011811,-0.649607 0.542126,-0.67441 1.53071,-1.07008 0.618898,-0.248032 1.22126,-0.522048 1.84252,-0.761811 2.49803,-0.966142 4.9937,-1.92874 7.47166,-2.94331 1.65118,-0.675591 2.5311,-0.850394 4.24961,-0.972048 -0.597638,-0.753544 -2.32677,-1.90512 -3.13937,-2.51929 -0.933071,-0.705119 -2.81457,-1.55079 -3.91181,-1.84252 -3.08032,-0.819686 -4.35827,-0.765355 -7.43977,-0.0011811 -2.18032,0.540945 -4.15158,1.43622 -6.18544,2.44725 -0.661418,0.328347 -1.24488,0.672048 -1.87677,0.999213 -1.36654,0.708662 -4.05473,2.54173 -5.12008,3.50788 -0.505512,0.458268 -1.0252,0.884646 -1.50827,1.36536 -0.747638,0.742914 -0.592914,0.676772 -1.50709,1.39488l-0.261024 -0.274016 0 -0.0814961c0.0283465,-0.25748 0.127559,-0.366142 0.325984,-0.562205 0.505512,-0.500788 0.976772,-1.09134 1.50945,-1.56969 2.13898,-1.92402 4.62638,-3.71339 7.24843,-5.00788 2.01969,-0.996851 3.48544,-1.76457 5.66457,-2.48622 1.59921,-0.530315 3.33189,-0.961418 5.01851,-1.08425 0.649607,-0.0472441 1.34055,0.022441 1.99134,0.0696851 -0.550394,-0.836221 -1.07953,-1.70669 -1.6063,-2.56536 -0.555118,-0.904725 -1.03701,-1.65709 -1.80827,-2.43189 -0.601181,-0.604725 -1.83543,-1.29449 -2.67874,-1.49882 -0.62126,-0.15 -1.22362,-0.178347 -1.84134,-0.284646 -0.979134,-0.170079 -0.719292,-0.0236221 -1.67717,-0.445276l-0.0106299 -0.223228 0.237402 -0.242126c0.311811,-0.153543 3.57047,0.448819 4.00512,0.62126 2.93858,1.16339 4.08189,3.55394 5.62678,6.07323 0.33189,0.540945 0.516142,1.14213 1.11142,1.28386 3.32717,0.786615 5.00788,2.14134 7.57796,4.13386l3.69331 3.35551c0,-1.87205 0.0106299,-3.60355 -0.291732,-5.37284 -0.37441,-2.19331 -1.06772,-4.39488 -2.1815,-6.29055 -0.609449,-1.03937 -2.79213,-3.96024 -3.57284,-5.0563l0.34252 -0.340158c0.538583,0.145276 2.30079,2.7437 2.69646,3.33425 0.928347,1.38425 1.57323,2.16969 2.22402,3.7937 0.752363,1.87913 1.02284,3.41929 1.37362,5.38819 0.225591,1.26732 0.0885827,4.74922 0.164173,5.15788 0.0696851,0.379134 3.68858,3.69921 4.2378,4.24607 0.479528,0.477166 1.0441,0.895276 1.51063,1.36417 0.452362,0.457087 0.969686,0.908268 1.4752,1.32992 0.529134,0.441733 1.02874,0.872835 1.58032,1.29567l3.6189 2.13307c-0.230315,-0.960237 -0.883465,-1.74921 -0.959056,-3.82205l-0.0696851 -1.09016c0.0011811,-0.437008 -0.0708662,-0.708662 -0.0696851,-1.15866l-0.00236221 -1.77756c0.00944882,-0.264567 0.0637796,-0.274016 0.0744095,-0.539764 0.0141732,-0.379134 -0.0200788,-0.785434 -0.00590552,-1.16457l0.194882 -3.42284c0.111024,-0.692126 0.011811,-3.81378 0.0141732,-4.76103 0.0011811,-0.688583 -0.11811,-1.48819 -0.245669,-2.1437 -0.232677,-1.18583 -0.915355,-2.19331 -1.6063,-3.17835 -0.315355,-0.45 -0.794882,-0.875197 -1.09961,-1.29567 -0.511418,-0.705119 -4.04292,-3.79961 -4.95945,-4.64292l0.240945 -0.329528c0.605906,-0.0165354 0.733465,0.46063 1.17638,0.784252 0.337795,0.248032 0.630709,0.551575 0.975591,0.804331 0.592914,0.437008 1.37008,1.1374 1.89685,1.66181 1.20473,1.19646 2.31496,2.32795 3.21142,3.83504 1.16339,1.95945 1.16457,3.55512 1.16457,5.8689 0,0.817323 0.0980316,2.7815 -0.0271654,3.45236 -0.100394,0.536221 -0.00472441,1.10551 -0.0968505,1.67835 -0.0366142,0.227953 -0.0141732,0.625985 -0.0129921,0.872835l-0.133465 2.46024c-0.0897638,0.764174 -0.0307087,1.82717 0.0602363,2.59134l0.0767717 1.69725c0.0248032,0.216142 0.0909449,0.542126 0.126378,0.761811 0.184252,1.15039 0.399213,1.60276 0.830315,2.65394 0.305906,0.745276 0.114567,0.590552 0.846851,0.93189 2.65512,1.24016 5.63859,1.89095 8.55945,1.99843l1.7126 0.0708662c0.623622,0 1.12441,0.0696851 1.71614,0.068504 0.579922,-0.0011811 1.20236,-0.186614 1.30394,0.441733l0 0.0472441z"/>
      </g>
      <polygon id="_313369472" class="fil2" points="45.2233,137.908 44.3611,140.149 46.6122,139.517 "/>
     </g>
    </g>
    <g>
     <path id="_313369256" class="fil2" d="M113.132 62.6575c-3.19843,-1.74567 -4.64055,-5.7567 -4.64055,-9.2067 0,-3.55984 1.53189,-8.16851 4.56969,-10.2602l0.46063 -0.317717 0.461811 0.317717c3.0378,2.09173 4.56851,6.7004 4.56851,10.2602 0,3.45 -1.44213,7.46221 -4.63937,9.2067l-0.390945 0.21378 -0.389764 -0.21378zm8.70473 48.5575c-0.379134,-2.20158 0.10748,-4.48701 1.04173,-6.49252 1.08071,-2.31969 2.78622,-4.35236 4.79292,-5.93741 0.692126,-0.546851 1.42323,-1.04291 2.1815,-1.49055 1.94291,-1.14449 4.13268,-2.00197 6.35079,-2.43307 1.96536,-0.380315 4.13268,-0.454725 6.06733,0.126378l0.537402 0.161811 0.0366142 0.557481c0.132284,2.00315 -0.429922,4.08544 -1.24843,5.90197 -0.922442,2.05039 -2.25827,3.97677 -3.81851,5.59843 -0.61063,0.634252 -1.2626,1.22953 -1.95354,1.7752 -2.00788,1.58504 -4.38544,2.77677 -6.90237,3.29882 -2.17795,0.451181 -4.52835,0.405118 -6.6,-0.458268l-0.411024 -0.17126 -0.0744095 -0.437008zm0.292914 -14.9339c-0.496063,-2.05866 -0.179528,-4.24843 0.578741,-6.20315 0.875197,-2.25709 2.35748,-4.2815 4.15394,-5.90197 0.617717,-0.558662 1.27677,-1.07244 1.96536,-1.54134 3.13465,-2.13543 7.7563,-3.82441 11.5819,-2.94331l0.546851 0.126378 0.0732284 0.553937c0.51378,3.86929 -1.62284,8.27717 -4.06299,11.1732 -0.536221,0.636615 -1.11496,1.23898 -1.73268,1.79646 -1.79646,1.62047 -3.96614,2.89252 -6.31063,3.54095 -2.0315,0.561024 -4.25551,0.662599 -6.2693,-0.0271654l-0.420473 -0.142913 -0.103937 -0.431103zm-3.1252 -12.2575c-0.612992,-1.76693 -0.526772,-3.71811 -0.0295276,-5.5004 0.572835,-2.05039 1.69606,-3.94843 3.12992,-5.52048 0.49252,-0.539764 1.02402,-1.04528 1.58622,-1.51417 2.56536,-2.13898 6.463,-4.00394 9.89292,-3.5563l0.5563 0.0720473 0.127559 0.544489c0.783071,3.34843 -0.701575,7.38544 -2.5937,10.1327 -0.413386,0.602363 -0.868111,1.17756 -1.36063,1.71732 -1.43268,1.57205 -3.22323,2.8689 -5.22048,3.63544 -1.73622,0.667323 -3.6815,0.943701 -5.51103,0.510237l-0.432284 -0.102756 -0.145276 -0.41811zm-3.9437 -12.4299c-0.506693,-1.47992 -0.431103,-3.10866 -0.00944882,-4.59922 0.483071,-1.70315 1.42087,-3.27638 2.61732,-4.57914 2.23583,-2.43425 6.17244,-4.62756 9.56339,-4.17402l0.5563 0.0755906 0.125197 0.544489c0.64252,2.79095 -0.596457,6.13819 -2.18032,8.42245 -0.346063,0.497244 -0.724016,0.973229 -1.13504,1.42087 -1.19646,1.30158 -2.68819,2.37402 -4.35,3.00473 -1.45512,0.552756 -3.0815,0.775985 -4.61103,0.407481l-0.432284 -0.103937 -0.144095 -0.419292zm-11.7118 40.2296c-2.07284,0.863386 -4.42323,0.909449 -6.6,0.458268 -2.51811,-0.522048 -4.89567,-1.71378 -6.90355,-3.29882 -0.690945,-0.54567 -1.34291,-1.14095 -1.95236,-1.7752 -1.56142,-1.62165 -2.89725,-3.54803 -3.81969,-5.59843 -0.818504,-1.81654 -1.38071,-3.89882 -1.24843,-5.90197l0.0366142 -0.557481 0.537402 -0.161811c1.93465,-0.581103 4.10197,-0.506693 6.06851,-0.126378 2.21811,0.431103 4.4067,1.28858 6.34961,2.43307 0.759449,0.447638 1.49055,0.943701 2.1815,1.49055 2.00788,1.58504 3.71221,3.61772 4.79292,5.93741 0.935434,2.00551 1.42087,4.29095 1.04291,6.49252l-0.0755906 0.437008 -0.409843 0.17126zm-0.333071 -14.9681c-2.01378,0.689764 -4.2378,0.588189 -6.26811,0.0271654 -2.34449,-0.648426 -4.51536,-1.92047 -6.31181,-3.54095 -0.617717,-0.557481 -1.19646,-1.15984 -1.7315,-1.79646 -2.44134,-2.89606 -4.57796,-7.30394 -4.06418,-11.1732l0.0732284 -0.553937 0.548032 -0.126378c3.82559,-0.881103 8.44607,0.807875 11.5819,2.94331 0.688583,0.468898 1.34646,0.982678 1.96536,1.54134 1.79646,1.62047 3.27874,3.64488 4.15394,5.90197 0.758268,1.95473 1.07362,4.14449 0.577559,6.20315l-0.103937 0.431103 -0.420473 0.142913zm3.07205 -12.3106c-1.82953,0.433465 -3.77362,0.157087 -5.51103,-0.510237 -1.99606,-0.766536 -3.78662,-2.06339 -5.22048,-3.63544 -0.49252,-0.539764 -0.947245,-1.11496 -1.36063,-1.71732 -1.89095,-2.74725 -3.37677,-6.78426 -2.5937,-10.1327l0.127559 -0.544489 0.5563 -0.0720473c3.42992,-0.447638 7.32756,1.41732 9.89292,3.5563 0.562205,0.468898 1.0937,0.97441 1.5874,1.51417 1.43268,1.57205 2.55591,3.47008 3.12874,5.52048 0.497244,1.78228 0.584646,3.73347 -0.0295276,5.5004l-0.144095 0.41811 -0.433465 0.102756zm3.94488 -12.4276c-1.52953,0.368504 -3.15473,0.145276 -4.60985,-0.407481 -1.66299,-0.630709 -3.15473,-1.70315 -4.35118,-3.00473 -0.411024,-0.447638 -0.788977,-0.923623 -1.13386,-1.42087 -1.58504,-2.28425 -2.82284,-5.6315 -2.1815,-8.42245l0.125197 -0.544489 0.557481 -0.0755906c3.38977,-0.453544 7.32638,1.73976 9.56221,4.17402 1.19646,1.30276 2.13543,2.87599 2.61732,4.57914 0.421654,1.49055 0.498425,3.11929 -0.00944882,4.59922l-0.144095 0.419292 -0.432284 0.103937z"/>
    </g>
    <g>
     <path id="_313368992" class="fil6" d="M113.522 61.9524l0 0 0 0 0 -0.0011811c2.47323,-1.34882 4.22008,-4.64646 4.22008,-8.5004 0,-3.85394 -1.74685,-7.89449 -4.22008,-9.59764l0 0 0 0 0 0 0 0c-2.47205,1.70315 -4.2189,5.7437 -4.2189,9.59764 0,3.85394 1.74685,7.15158 4.2189,8.5004l0 0.0011811z"/>
     <path id="_313368824" class="fil6" d="M122.635 111.08l0 0 0 0 0 0c3.54095,1.4752 8.55355,0.533859 12.685,-2.72835 4.1315,-3.26221 6.98386,-8.53229 6.71575,-12.5929l0 0 0 0 0 0 0 0c-3.9189,-1.17638 -9.72875,0.394488 -13.8602,3.6567 -4.13032,3.26221 -6.18662,7.90276 -5.54055,11.6634l0 0.0011811z"/>
     <path id="_313368656" class="fil6" d="M122.919 96.0934l0 0.0011811 0 0 0 0c3.42402,1.17047 8.08465,-0.0248032 11.7709,-3.34961 3.68504,-3.32599 6.04134,-8.4626 5.53701,-12.2681l0 0 0 0 0 -0.0011811 0 0.0011811c-3.76299,-0.86693 -9.13465,0.969686 -12.8197,4.29567 -3.68622,3.32481 -5.3315,7.82126 -4.48819,11.3209l0 0z"/>
     <path id="_313368488" class="fil6" d="M119.771 83.7603l0 0 0 0 0 0c3.07559,0.729922 7.02402,-0.701575 9.94253,-3.90236 2.91851,-3.20079 4.52835,-7.8626 3.76536,-11.1272l0 0 0 0 -0.0011811 0 0 0c-3.34252,-0.435827 -7.85315,1.61339 -10.7728,4.813 -2.91851,3.20079 -3.96496,7.24607 -2.93386,10.2165l0 0z"/>
     <path id="_313368320" class="fil6" d="M115.828 71.3339l0 0 0 0.0011811 0 -0.0011811c2.52166,0.608268 5.76615,-0.555118 8.17205,-3.17244 2.40473,-2.61851 3.73937,-6.43937 3.12284,-9.12048l0 -0.0011811 0 0 0 0 0 0c-2.74252,-0.367323 -6.45119,1.30039 -8.85591,3.9189 -2.40473,2.61732 -3.27638,5.93504 -2.43898,8.3752l0 0z"/>
     <path id="_313368152" class="fil6" d="M103.035 111.08l0 0 0 0 0 0c-3.53977,1.4752 -8.55355,0.533859 -12.685,-2.72835 -4.13032,-3.26221 -6.98268,-8.53229 -6.71575,-12.5929l0 0 0 0 0 0 0 0c3.9189,-1.17638 9.72875,0.394488 13.8602,3.6567 4.1315,3.26221 6.18662,7.90276 5.54055,11.6634l0 0.0011811z"/>
     <path id="_313367984" class="fil6" d="M102.752 96.0934l0 0.0011811 0 0 -0.0011811 0c-3.42402,1.17047 -8.08465,-0.0248032 -11.7697,-3.34961 -3.68622,-3.32599 -6.04252,-8.4626 -5.53819,-12.2681l0 0 0 0 0 -0.0011811 0.0011811 0.0011811c3.76181,-0.86693 9.13347,0.969686 12.8185,4.29567 3.68622,3.32481 5.3315,7.82126 4.48937,11.3209l0 0z"/>
     <path id="_313367816" class="fil6" d="M105.9 83.7603l-0.0011811 0 0 0 0 0c-3.07559,0.729922 -7.02284,-0.701575 -9.94253,-3.90236 -2.91851,-3.20079 -4.52835,-7.8626 -3.76418,-11.1272l0 0 0 0 0 0 0 0c3.3437,-0.435827 7.85434,1.61339 10.7728,4.813 2.91851,3.20079 3.96614,7.24607 2.93504,10.2165l0 0z"/>
     <path id="_313367528" class="fil6" d="M109.841 71.3339l0 0 0 0.0011811 0 -0.0011811c-2.52166,0.608268 -5.76615,-0.555118 -8.17087,-3.17244 -2.40591,-2.61851 -3.74055,-6.43937 -3.12402,-9.12048l0 -0.0011811 0 0 0 0 0.0011811 0c2.74134,-0.367323 6.45,1.30039 8.85473,3.9189 2.40591,2.61732 3.27638,5.93504 2.43898,8.3752l0 0z"/>
    </g>
    <polyline id="_313216848" class="fil7" points="170.854,142.746 170.672,142.724 162.806,155.432 "/>
    <polyline id="_313216824" class="fil7" points="55.2544,142.746 55.4374,142.724 63.3036,155.432 "/>
    <g>
     <path id="_313216608" class="fil2" d="M68.2867 165.078c-2.8252,-2.29134 -5.47205,-4.79764 -7.91221,-7.48937l-4.52362 2.76614 -10.9488 -17.6882 11.7272 -1.36417 0.264567 0.467717c2.99292,5.28071 6.73111,10.128 11.0811,14.3752 12.0142,11.7343 28.0028,18.3036 44.8607,18.3036 16.8567,0 32.8453,-6.56811 44.8595,-18.3024 4.35,-4.24843 8.08819,-9.09567 11.0823,-14.3764l0.264567 -0.467717 11.726 1.36417 -10.9488 17.6882 -4.52481 -2.76732c-2.44016,2.69292 -5.08701,5.19922 -7.91103,7.49056l2.94567 4.57677 -19.6914 12.5173 -3.57874 -5.56063c-4.13504,1.51299 -8.40827,2.63504 -12.7559,3.35315l0 5.86536 -22.9358 0 0 -5.86654c-4.34646,-0.718111 -8.61969,-1.84016 -12.7559,-3.35197l-3.57874 5.56063 -19.6902 -12.5173 2.94449 -4.57677z"/>
    </g>
    <path id="_313216440" class="fil8" d="M112.836 175.256l0 0c-24.3095,-0.080315 -45.4866,-13.3973 -56.6481,-33.091l-2.57717 0.3 -7.35237 0.855119 9.85867 15.926 4.41142 -2.69764c2.74134,3.08386 5.75315,5.92559 8.99764,8.48623l-0.164173 -0.129921 -2.89961 4.50591 18.3248 11.6492 3.49488 -5.43071 -0.0980316 -0.0366142c4.46457,1.68662 9.14646,2.93268 13.9937,3.68504l0 5.74725 10.6583 0 0 0 10.6571 0 0 -5.74607c4.81181,-0.746457 9.46064,-1.97953 13.8969,-3.64843l3.4937 5.42953 18.326 -11.6492 -2.89961 -4.50591c-0.519685,0.412205 -1.04528,0.818504 -1.57677,1.21536 3.78662,-2.83701 7.27559,-6.04725 10.4126,-9.57638l-0.00354331 0.00472441 4.41142 2.69764 9.85867 -15.926 -7.35237 -0.855119 -2.57599 -0.3c-11.1626,19.6937 -32.3386,33.0106 -56.6481,33.091z"/>
    <path id="_313216320" class="fil2" d="M109.434 156.605c-0.0106299,-0.75 0.320079,-2.63977 0.347244,-3.47481l0.205512 -5.18504c0.0307087,-1.00512 -0.022441,-10.0276 -0.112205,-10.6063 -0.0791339,-0.509055 0.0212599,-1.00394 -0.0578741,-1.51181 -0.129921,-0.839764 -0.0944882,-1.88976 -0.231496,-2.90906 -0.249213,-1.85315 -2.48977,-7.05473 -3.59764,-8.70237 -1.69134,-2.51811 -3.78307,-4.37953 -6.20197,-6.18307 -2.49921,-1.86496 -5.36457,-3.27756 -8.44371,-3.88819 -3.95788,-0.784252 -7.03937,-0.381496 -10.9004,0.615355 -2.65866,0.687402 -8.12481,1.69843 -10.5661,0.323622 -1.53071,-0.862205 -2.06221,-2.50276 -1.96772,-4.18701 0.0744095,-1.34646 0.49252,-4.04173 0.687402,-5.52284 -0.434646,0.389764 -2.27599,3.13583 -2.70591,3.79134 -1.76339,2.69292 -2.16732,4.61811 -1.37126,7.69607 0.265748,1.02874 0.596457,1.25433 1.45512,1.82835 1.7752,1.18583 2.12953,1.69252 4.26024,2.31378 1.13032,0.329528 1.90512,0.223228 3.03307,0.261024 0.925985,0.0318898 0.106299,0.168898 1.4811,-0.0200788 2.66693,-0.367323 4.36772,-0.698032 7.01811,-1.21181 0.898819,-0.174803 2.16614,-0.193701 3.09449,-0.196063 1.51536,-0.00472441 6.8315,1.24252 8.14016,1.73386 3.33662,1.25079 5.22284,3.14528 6.913,6.15827 2.14606,3.82914 3.20197,8.80512 3.20551,13.1858 0.00236221,2.02205 0.0129921,2.81693 -0.132284,4.78111l-0.285827 2.99764c-0.0696851,0.569292 0.126378,0.544489 0.506693,1.00158 0.644882,0.775985 2.57835,2.77323 3.10866,3.46063 0.217323,0.281103 2.90551,3.28819 3.11811,3.45z"/>
    <path id="_313216200" class="fil5" d="M123.104 131.237c0.152362,0.217323 0.166536,0.222047 0.447638,0.138189l0.00354331 -0.360236c-0.186614,0.0992127 -0.231496,0.0472441 -0.451181,0.222047z"/>
    <path id="_313216080" class="fil5" d="M59.8205 146.472c0.197244,0.197244 0.0980316,0.164173 0.388583,0.147638 -0.0271654,-0.196063 0.00354331,-0.264567 -0.148819,-0.454725 -0.153543,0.354331 0.109843,0.126378 -0.239764,0.307087z"/>
    <path id="_313215960" class="fil5" d="M116.237 156.605c0.00944882,-0.75 -0.32126,-2.63977 -0.348425,-3.47481l-0.205512 -5.18504c-0.0307087,-1.00512 0.022441,-10.0276 0.112205,-10.6063 0.0791339,-0.507874 -0.0200788,-1.00394 0.0578741,-1.51181 0.131102,-0.839764 0.0944882,-1.88976 0.231496,-2.90788 0.249213,-1.85433 2.49095,-7.05591 3.59764,-8.70355 1.69134,-2.51811 3.78307,-4.37953 6.20197,-6.18307 2.49921,-1.86496 5.36457,-3.27756 8.44371,-3.88819 3.95788,-0.784252 7.03937,-0.381496 10.9004,0.615355 2.65866,0.687402 8.12481,1.69843 10.5661,0.323622 1.53071,-0.862205 2.06221,-2.50276 1.9689,-4.18701 -0.0755906,-1.34646 -0.493701,-4.04173 -0.688583,-5.52284 0.434646,0.389764 2.27599,3.13583 2.70591,3.79134 1.76339,2.69292 2.16851,4.61811 1.37126,7.69607 -0.265748,1.02874 -0.595276,1.25433 -1.45512,1.82835 -1.7752,1.18583 -2.12953,1.69252 -4.26024,2.31378 -1.12913,0.329528 -1.90512,0.223228 -3.03307,0.261024 -0.924804,0.0318898 -0.106299,0.168898 -1.4811,-0.0200788 -2.66693,-0.367323 -4.36772,-0.698032 -7.01693,-1.21181 -0.898819,-0.174803 -2.16732,-0.193701 -3.09567,-0.196063 -1.51536,-0.00472441 -6.8315,1.24252 -8.14016,1.73386 -3.33662,1.25079 -5.22284,3.14528 -6.913,6.15827 -2.14606,3.82914 -3.20197,8.80512 -3.20551,13.1858 -0.00236221,2.02205 -0.0129921,2.81693 0.132284,4.78111l0.285827 2.99764c0.0696851,0.569292 -0.126378,0.544489 -0.506693,1.00158 -0.644882,0.775985 -2.57835,2.77323 -3.10866,3.46063 -0.217323,0.281103 -2.90433,3.28819 -3.11693,3.45z"/>
    <path id="_313215840" class="fil5" d="M102.566 130.786c-0.151181,0.217323 -0.165354,0.222047 -0.447638,0.138189l-0.00354331 -0.360236c0.186614,0.0992127 0.231496,0.0472441 0.451181,0.222047z"/>
    <path id="_313215744" class="fil5" d="M165.849 146.02c-0.197244,0.198425 -0.0968505,0.165354 -0.388583,0.148819 0.0271654,-0.197244 -0.00354331,-0.264567 0.148819,-0.454725 0.153543,0.354331 -0.109843,0.126378 0.239764,0.305906z"/>
    <g>
     <path id="_313215672" class="fil2" d="M116.603 156.999c1.41142,1.52244 2.0126,3.76654 2.20394,5.77323 0.147638,1.52835 -1.8189,4.58622 -2.68583,5.77559 -0.779528,1.07008 -1.7563,2.30433 -2.79567,3.13347l-0.493701 0.394488 -0.491339 -0.39567c-1.03701,-0.83504 -2.01142,-2.05984 -2.79213,-3.13229 -0.86693,-1.19055 -2.83229,-4.24607 -2.68701,-5.77559 0.193701,-2.00906 0.793701,-4.25197 2.20512,-5.77678l0 -22.9984 7.53662 0 0 23.002z"/>
    </g>
    <g>
     <path id="_313215408" class="fil9" d="M112.836 157.264l3.1063 0 0 -0.00236221c1.28268,1.25906 2.1378,3.27874 2.20748,5.57363 0.135827,0.842126 -0.915355,3.06378 -2.56417,5.32796 -0.940158,1.29095 -1.89449,2.34685 -2.67284,3.00591l-0.0779528 0.0625985 -0.0767717 -0.0625985c-0.777166,-0.659056 -1.7315,-1.71496 -2.67284,-3.00591 -1.64882,-2.26417 -2.7,-4.48583 -2.56417,-5.32796 0.0708662,-2.29488 0.924804,-4.31457 2.20866,-5.57363l0 0.00236221 3.1063 0z"/>
     <rect id="_313215288" class="fil9" x="109.729" y="134.655" width="6.21246" height="22.2412"/>
    </g>
    <ellipse id="_313215120" class="fil10" cx="112.835" cy="163.014" rx="1.5183" ry="1.50905"/>
    <path id="_313214904" class="fil11" d="M112.836 161.159c0.514961,0 0.981497,0.206693 1.31929,0.543307 0.337795,0.335433 0.546851,0.798426 0.546851,1.31102 0,0.511418 -0.209055,0.97441 -0.546851,1.31102l0 0 -0.0011811 0.0011811c-0.337795,0.335433 -0.804331,0.543307 -1.31811,0.543307 -0.514961,0 -0.981497,-0.207874 -1.31929,-0.543307l0 -0.0011811 -0.0011811 0c-0.337795,-0.336614 -0.546851,-0.799607 -0.546851,-1.31102 0,-0.512599 0.209055,-0.975591 0.546851,-1.31102 0.337795,-0.336614 0.804331,-0.543307 1.32047,-0.543307zm1.02756 0.832678c-0.262205,-0.262205 -0.625985,-0.424016 -1.02756,-0.424016 -0.401575,0 -0.765355,0.161811 -1.02874,0.424016 -0.263386,0.261024 -0.426378,0.622441 -0.426378,1.02165 0,0.400394 0.162992,0.761811 0.425197,1.02284l0.0011811 0c0.262205,0.261024 0.625985,0.422835 1.02874,0.422835 0.401575,0 0.765355,-0.161811 1.02756,-0.422835l0.0011811 0c0.262205,-0.261024 0.425197,-0.622441 0.425197,-1.02284 0,-0.399213 -0.162992,-0.76063 -0.426378,-1.02165z"/>
    <rect id="_313214952" class="fil2" x="112.622" y="164.651" width="0.426735" height="6.77455" rx="0.165354" ry="0.165354"/>
   </g>
   <g>
    <path id="_313214760" class="fil12" d="M328.459 224.086c5.1567,2.53937 23.1106,-0.799607 28.8461,-3.12992 7.74567,-3.14646 14.8016,-7.0252 20.7614,-13.0063 14.4071,-14.4579 19.6276,-27.2811 19.6276,-47.9221 0,-45.0355 0.0838583,-89.8406 -0.244488,-134.871 -2.6374,-0.734646 -10.8803,1.35118 -13.8437,2.34803 -3.18425,1.07008 -8.08111,3.75 -10.7917,5.8878 -6.60827,5.21103 -11.413,11.5488 -14.1224,19.65 -3.31772,9.92008 -2.08347,20.9055 -2.08347,31.2886l0 67.1516c0,10.9146 0.499607,23.0173 0.00472441,33.7819 -0.637796,13.8685 -6.31063,24.7134 -17.1508,32.8996 -1.56732,1.18228 -3.46654,2.42835 -5.21929,3.32481 -1.6063,0.819686 -4.48819,1.69488 -5.78386,2.59725z"/>
    <path id="_313214640" class="fil13" d="M245.23 169.958c2.17205,-2.75197 2.9374,-12.085 19.3618,-23.0362 17.0315,-11.3563 45.2268,-19.8047 65.5737,-20.674 5.89843,-0.252756 12.3437,-0.206693 15.1122,-6.45237l0.917717 -20.1626c-6.04843,-1.70788 -31.6229,2.53465 -38.7284,4.31221 -12.2646,3.06851 -20.8417,6.39449 -31.9477,11.9917 -13.2071,6.65552 -27.3626,19.7516 -31.1918,34.7232 -1.08189,4.22835 -1.56378,15.6803 0.902363,19.298z"/>
    <path id="_313214520" class="fil14" d="M264.919 197.959c0.479528,-3.64016 -3.6437,-12.3709 11.224,-22.3866 12.3295,-8.30552 31.9819,-13.5484 47.1284,-14.7106 2.19803,-0.168898 6.48189,-0.230315 8.36575,-0.583465 4.70788,-0.881103 8.23583,-3.86103 9.28347,-8.61851l-0.0141732 -17.4331c-5.60906,-1.58504 -28.2177,2.59725 -34.7398,4.23189 -18.2917,4.58386 -40.1977,13.1705 -48.6827,31.0618 -6.24095,13.1599 5.31496,27.8469 7.43504,28.4386z"/>
    <path id="_313214376" class="fil15" d="M243.684 131.621c0.48189,-0.133465 7.33937,-8.45552 9.19371,-9.84804 14.0469,-10.5449 18.698,-14.8524 38.0858,-21.3154 10.3795,-3.46063 21.1299,-5.96693 31.9878,-7.47402 5.83701,-0.811418 10.1469,-1.11496 12.4618,-7.47402l0.205512 -19.2484c-4.95355,-1.39843 -27.6142,3.07087 -33.8788,5.0941 -9.89528,3.19488 -18.5303,6.49725 -27.3851,12.0791 -8.15552,5.14134 -15.1382,11.0138 -20.8347,18.6331 -5.32796,7.12796 -11.6669,20.524 -9.83623,29.5536z"/>
    <path id="_313214352" class="fil16" d="M325.774 224.167c-3.27874,-1.61457 -13.1929,-1.44567 -22.4563,-7.97599 -8.23229,-5.80276 -8.23701,-12.9201 -0.0011811,-18.724 6.72874,-4.74331 15.0555,-6.55158 23.0894,-7.83071 4.17638,-0.664961 7.52717,-2.76378 8.76969,-6.69095l0.442914 -14.5335c-2.48032,-0.700394 -15.3921,0.986221 -18.7039,1.55433 -13.1799,2.25709 -35.6327,8.64095 -40.2638,22.3925 -1.75276,5.20512 0.246851,11.9161 3.41575,16.1646 3.39449,4.54961 6.29882,6.65315 11.1284,9.62363 8.6067,5.29252 24.6839,8.02914 34.5792,6.02008z"/>
   </g>
   <g>
    <path id="_313214088" class="fil11" d="M483.635 74.7l0 -0.199606c0,-3.6 -0.617717,-6.88347 -1.85079,-9.8504 -1.23307,-2.96693 -3,-5.51693 -5.29961,-7.65 -2.29961,-2.13307 -5.1,-3.78307 -8.40001,-4.95 -3.3,-1.16693 -7.05,-1.75039 -11.25,-1.75039l-28.6004 0 0 70.0004 15.4004 0 0 -21 11.7 0c3.93307,0 7.61693,-0.517323 11.0492,-1.54961 3.43347,-1.03347 6.43347,-2.58425 9.00119,-4.65 2.56654,-2.06693 4.58268,-4.63347 6.04961,-7.70079 1.46693,-3.06614 2.2004,-6.63307 2.2004,-10.6996zm-15.6012 0.3c0,3 -1.06654,5.51693 -3.19961,7.54961 -2.13307,2.03386 -5.13307,3.05079 -9.00001,3.05079l-12.1996 0 0 -21.4004 11.8996 0c3.86693,0 6.91654,0.900001 9.15001,2.7 2.23347,1.8 3.34961,4.43268 3.34961,7.9004l0 0.199606zm98.302 10.3004l0 -0.200788c0,-4.99961 -0.917717,-9.68268 -2.75079,-14.0492 -1.83307,-4.36772 -4.39961,-8.16733 -7.69961,-11.4012 -3.3,-3.23268 -7.21654,-5.79922 -11.7496,-7.69961 -4.53425,-1.90039 -9.50079,-2.85 -14.9008,-2.85 -5.4,0 -10.3831,0.949607 -14.9504,2.85 -4.56614,1.90039 -8.49922,4.5 -11.7992,7.8 -3.3,3.3 -5.88426,7.13386 -7.7504,11.5004 -1.86614,4.36654 -2.8004,9.04961 -2.8004,14.0504l0 0.199606c0,4.99961 0.916536,9.68268 2.75079,14.0504 1.83307,4.36654 4.39961,8.16615 7.69961,11.4 3.3,3.23268 7.21654,5.79922 11.7496,7.69961 4.53425,1.90039 9.50079,2.85 14.9008,2.85 5.4,0 10.3831,-0.949607 14.9504,-2.85 4.56614,-1.90039 8.49922,-4.5 11.7992,-7.8 3.3,-3.3 5.88307,-7.13386 7.7504,-11.5004 1.86614,-4.36654 2.8004,-9.04961 2.8004,-14.0492zm-16.1008 0.199606c0,3 -0.516142,5.81693 -1.54961,8.44961 -1.03347,2.63386 -2.46732,4.95 -4.3004,6.95079 -1.83307,1.99961 -4.05,3.56575 -6.64961,4.69961 -2.60079,1.13386 -5.43307,1.69961 -8.5004,1.69961 -3.13347,0 -5.98347,-0.583465 -8.55001,-1.74921 -2.56654,-1.16693 -4.8,-2.75079 -6.7004,-4.7504 -1.89921,-1.99961 -3.36614,-4.33347 -4.39961,-7.0004 -1.03347,-2.66693 -1.54961,-5.49922 -1.54961,-8.49922l0 -0.200788c0,-3 0.516142,-5.81693 1.54961,-8.44961 1.03347,-2.63386 2.46732,-4.95 4.3004,-6.95079 1.83307,-1.99961 4.03347,-3.56575 6.6,-4.69961 2.56654,-1.13268 5.41654,-1.69961 8.55001,-1.69961 3.06614,0 5.89961,0.583465 8.5004,1.74921 2.59961,1.16693 4.84961,2.75079 6.75,4.7504 1.89921,2.00079 3.36614,4.33347 4.39961,7.0004 1.03347,2.66693 1.54961,5.5004 1.54961,8.5004l0 0.199606zm80.1012 34.8l0 -13.9996 -34.9004 0 0 -56.0008 -15.4004 0 0 70.0004 50.3008 0zm27.6992 0l0 -70.0004 -15.3992 0 0 70.0004 15.3992 0zm70.5012 -55.8l0 -14.2004 -58.0004 0 0 14.2004 21.3 0 0 55.8 15.3992 0 0 -55.8 21.3012 0zm65.1 55.8l0 -13.6996 -38.0008 0 0 -14.7 33 0 0 -13.7008 -33 0 0 -14.2004 37.5 0 0 -13.6996 -52.8 0 0 70.0004 53.3008 0zm77.4 0l-29.8004 -40.3004 28.5 -29.7 -18.6 0 -28.3996 30.6 0 -30.6 -15.4004 0 0 70.0004 15.4004 0 0 -21.4004 8.1 -8.40001 21.7004 29.8004 18.4996 0zm71.5004 0l0 -70.0004 -15.1996 0 0 43.1008 -32.8004 -43.1008 -14.2004 0 0 70.0004 15.1996 0 0 -44.5004 33.9012 44.5004 13.0996 0zm32.8996 0l0 -70.0004 -15.3992 0 0 70.0004 15.3992 0zm81.2008 0l-29.8004 -40.3004 28.5 -29.7 -18.6 0 -28.3996 30.6 0 -30.6 -15.4004 0 0 70.0004 15.4004 0 0 -21.4004 8.1 -8.40001 21.7004 29.8004 18.4996 0z"/>
    <path id="_313214064" class="fil11" d="M475.092 200l0 -52.5083 -11.4012 0 0 32.3303 -24.6036 -32.3303 -10.6524 0 0 52.5083 11.4012 0 0 -33.3803 25.4303 33.3803 9.8256 0zm52.5839 0l0 -10.2768 -28.5047 0 0 -11.0268 24.7536 0 0 -10.2768 -24.7536 0 0 -10.6512 28.1292 0 0 -10.2768 -39.6059 0 0 52.5083 39.9815 0zm57.9839 -7.42678l0 -22.8036 -22.8036 0 0 9.97678 11.6268 0 0 7.50119c-2.9504,2.1 -6.57638,3.15118 -10.8768,3.15118 -2.3504,0 -4.48819,-0.413386 -6.41339,-1.2378 -1.9252,-0.825591 -3.6,-1.9878 -5.02559,-3.4878 -1.42559,-1.50118 -2.5252,-3.26339 -3.30118,-5.28898 -0.774804,-2.02441 -1.16221,-4.2378 -1.16221,-6.6378l0 -0.151181c0,-2.25 0.387402,-4.36299 1.16221,-6.3378 0.775985,-1.97599 1.85079,-3.7004 3.22677,-5.17559 1.3748,-1.4752 2.97402,-2.65158 4.8,-3.52677 1.82599,-0.874016 3.7878,-1.31221 5.88898,-1.31221 1.5,0 2.8748,0.125197 4.12441,0.375591 1.25079,0.249213 2.41417,0.6 3.48898,1.05 1.0748,0.45 2.11181,1.00039 3.11221,1.65 1.00039,0.650788 2.00079,1.40079 3.00118,2.25l7.27678 -8.7756c-1.35,-1.15039 -2.75079,-2.17559 -4.20118,-3.07559 -1.45039,-0.900001 -3,-1.65 -4.65118,-2.25 -1.65,-0.601181 -3.43819,-1.06299 -5.36339,-1.38898 -1.9252,-0.323622 -4.06299,-0.486614 -6.41339,-0.486614 -4.0004,0 -7.67599,0.712205 -11.0268,2.1378 -3.35079,1.42559 -6.2504,3.37559 -8.70119,5.85118 -2.45079,2.47441 -4.36299,5.3504 -5.7378,8.6256 -1.37599,3.27638 -2.06339,6.78898 -2.06339,10.5402l0 0.15c0,3.9 0.67441,7.50119 2.02441,10.8012 1.35118,3.3 3.23858,6.15118 5.66457,8.55119 2.4248,2.4 5.32559,4.27559 8.70119,5.62559 3.37559,1.35 7.1126,2.02559 11.2146,2.02559 4.8,0 9.0626,-0.812599 12.789,-2.4378 3.72638,-1.6252 6.93898,-3.58819 9.63898,-5.88898zm51.0839 7.42678l0 -10.2768 -28.5047 0 0 -11.0268 24.7536 0 0 -10.2768 -24.7536 0 0 -10.6512 28.1292 0 0 -10.2768 -39.6059 0 0 52.5083 39.9815 0zm55.6583 0l-12.8268 -18.7536c3.34961,-1.24961 6.0626,-3.2126 8.13898,-5.8878 2.0752,-2.6752 3.11339,-6.13937 3.11339,-10.389l0 -0.15c0,-5.45079 -1.73858,-9.70158 -5.21457,-12.7524 -3.47481,-3.04961 -8.33859,-4.57559 -14.5902,-4.57559l-24.0024 0 0 52.5083 11.5512 0 0 -16.8024 9.0756 0 11.2536 16.8024 13.5012 0zm-13.2768 -34.4303c0,2.25 -0.762993,4.05 -2.2878,5.40118 -1.5248,1.35 -3.71339,2.02441 -6.56339,2.02441l-11.7024 0 0 -15.0768 11.4768 0c2.85,0 5.07638,0.624804 6.67559,1.87441 1.60039,1.25079 2.40118,3.12638 2.40118,5.62678l0 0.15zm34.2047 34.4303l0 -52.5083 -11.5512 0 0 52.5083 11.5512 0zm66.1607 -18.1524l0 -34.3559 -11.8524 0 0 33.8303c0,3.05079 -0.624804,5.263 -1.87559,6.63898 -1.24961,1.3748 -2.9752,2.06221 -5.17559,2.06221 -1.84961,0 -3.5374,-0.462992 -5.06339,-1.3878 -1.5248,-0.924804 -3.0378,-2.21339 -4.5378,-3.86221l-7.27678 8.10119c1.80118,2.14961 4.08898,3.99922 6.86457,5.55 2.77559,1.55079 6.21378,2.32559 10.3134,2.32559 2.75197,0 5.27599,-0.387402 7.57678,-1.16339 2.30079,-0.774804 4.2626,-1.95 5.88898,-3.52441 1.62402,-1.57559 2.88662,-3.53858 3.78662,-5.88898 0.901182,-2.3504 1.35118,-5.12599 1.35118,-8.3256zm51.7583 18.1524l0 -10.2768 -28.5047 0 0 -11.0268 24.7536 0 0 -10.2768 -24.7536 0 0 -10.6512 28.1292 0 0 -10.2768 -39.6059 0 0 52.5083 39.9815 0zm62.7851 0l0 -52.5083 -12.4524 0 -13.8024 22.2036 -13.8012 -22.2036 -12.4524 0 0 52.5083 11.3268 0 0 -34.0559 14.6268 22.2047 0.3 0 14.778 -22.4291 0 34.2803 11.4768 0zm57.2339 -14.4024l0 -0.15c0,-3.50079 -0.875197,-6.23859 -2.62441,-8.21339 -1.75158,-1.97599 -4.15158,-3.53858 -7.20119,-4.68898 0.949607,-0.499607 1.83662,-1.09961 2.66221,-1.8 0.825591,-0.699213 1.54961,-1.51299 2.17559,-2.4378 0.624804,-0.924804 1.12559,-1.96299 1.5,-3.11221 0.37441,-1.15158 0.562205,-2.47559 0.562205,-3.97677l0 -0.15c0,-4.1504 -1.5378,-7.4504 -4.61339,-9.90119 -3.07441,-2.45079 -7.31339,-3.67559 -12.7146,-3.67559l-24.378 0 0 52.5083 24.978 0c2.9504,0 5.63859,-0.301181 8.06457,-0.900001 2.4248,-0.6 4.5,-1.5 6.22559,-2.70118 1.72559,-1.2 3.05079,-2.7 3.97559,-4.5 0.925985,-1.8 1.3878,-3.90118 1.3878,-6.30118zm-14.4024 -22.428c0,1.95 -0.75,3.3626 -2.25,4.2378 -1.50118,0.875197 -3.52677,1.31221 -6.07559,1.31221l-10.6524 0 0 -11.1012 11.4012 0c2.45079,0 4.32638,0.461811 5.62559,1.38662 1.30158,0.925985 1.95118,2.26417 1.95118,4.01339l0 0.151181zm2.92559 21.0024c0,1.95118 -0.725197,3.3874 -2.17559,4.31339 -1.44921,0.924804 -3.45,1.3878 -6.00118,1.3878l-13.7268 0 0 -11.5524 13.3524 0c3,0 5.17559,0.51378 6.52559,1.53898 1.35118,1.02402 2.02559,2.41181 2.02559,4.16221l0 0.15zm60.9851 15.828l0 -10.2768 -28.5047 0 0 -11.0268 24.7536 0 0 -10.2768 -24.7536 0 0 -10.6512 28.1292 0 0 -10.2768 -39.6059 0 0 52.5083 39.9815 0zm55.6595 0l-12.8268 -18.7536c3.34961,-1.24961 6.0626,-3.2126 8.1378,-5.8878 2.0752,-2.6752 3.11339,-6.13937 3.11339,-10.389l0 -0.15c0,-5.45079 -1.73858,-9.70158 -5.21339,-12.7524 -3.47599,-3.04961 -8.33859,-4.57559 -14.5902,-4.57559l-24.0036 0 0 52.5083 11.5524 0 0 -16.8024 9.0756 0 11.2524 16.8024 13.5024 0zm-13.2768 -34.4303c0,2.25 -0.762993,4.05 -2.28898,5.40118 -1.5248,1.35 -3.71339,2.02441 -6.56339,2.02441l-11.7012 0 0 -15.0768 11.4768 0c2.85,0 5.0752,0.624804 6.67559,1.87441 1.60039,1.25079 2.40118,3.12638 2.40118,5.62678l0 0.15z"/>
   </g>
   <g>
    <circle id="_313376480" class="fil17" cx="1187.17" cy="125.001" r="99.9999"/>
    <g>
     <path id="_313376312" class="fil18" d="M1185.59 147.653l8.27008 0c1.39606,0 2.49685,0.0590552 3.30709,0.175984 0.807875,0.115748 1.43386,0.304725 1.87913,0.559843 0.745276,0.42874 1.26496,0.988583 1.55669,1.68543 0.297638,0.694489 0.360236,1.4941 0.194882,2.39764 -0.162992,0.885827 -0.475985,1.64528 -0.937796,2.28071 -0.46063,0.635433 -1.08307,1.15748 -1.86614,1.57559 -0.656693,0.340158 -1.37835,0.584646 -2.17441,0.728741 -0.796063,0.144095 -1.98307,0.216142 -3.56929,0.216142l-4.62284 0 -0.950788 5.17205 -3.8067 0 2.72008 -14.7921zm22.9973 3.1937l10.1221 0 0.164173 -0.862205 0.0366142 -0.191339 0.465355 -2.43543 -6.82914 0c-3.14646,0 -5.5878,0.634252 -7.32874,1.90158 -0.608268,0.444095 -1.14095,0.973229 -1.59921,1.5874l4.75512 0 0.21378 0zm17.9421 0l10.1209 0 0.165354 -0.862205 0.0366142 -0.191339 0.465355 -2.43543 -6.82914 0c-3.14764,0 -5.58898,0.634252 -7.32993,1.90158 -0.607087,0.444095 -1.13976,0.973229 -1.59803,1.5874l4.9689 0 0 0zm-69.717 9.07205c-0.646063,0 -1.17047,0.529134 -1.17047,1.18347 0,0.65315 0.52441,1.18228 1.17047,1.18228l4.36299 0c0.646063,0 1.17047,-0.529134 1.17047,-1.18228 0,-0.654331 -0.52441,-1.18347 -1.17047,-1.18347l-4.36299 0zm3.4937 -12.2528c-0.670867,0 -1.21536,0.530315 -1.21536,1.18347 0,0.65315 0.544489,1.18347 1.21536,1.18347l6.94489 0c-0.389764,0.622441 -0.655512,1.37362 -0.796063,2.25354 -0.250394,1.5626 -0.0318898,2.65276 0.654331,3.26575 0.693308,0.612992 2.15669,0.917717 4.39252,0.917717l3.77362 0c0.805512,0 1.37835,0.116929 1.72323,0.350788 0.340158,0.229134 0.470079,0.598819 0.389764,1.09961 -0.0814961,0.505512 -0.327166,0.870473 -0.735827,1.09961 -0.408662,0.229134 -1.02284,0.341339 -1.84016,0.341339l-9.2126 0 -0.49252 3.08386 11.2795 0c1.32992,0 2.4874,-0.429922 3.46772,-1.28622 0.980316,-0.861024 1.58268,-1.9748 1.80118,-3.34607 0.227953,-1.42323 -0.0744095,-2.51339 -0.905906,-3.26693 -0.827953,-0.753544 -2.14843,-1.1315 -3.96024,-1.1315l-3.9567 0c-0.712205,0 -1.21772,-0.108661 -1.5189,-0.323622 -0.295276,-0.214961 -0.408662,-0.551575 -0.335433,-1.01102 0.080315,-0.500788 0.324803,-0.851575 0.732284,-1.04764 0.414567,-0.197244 1.24606,-0.295276 2.50276,-0.295276l7.71497 0 0.493701 -3.08386 -9.38505 0c-0.211417,0 -0.41811,0.00472441 -0.618898,0.0129921l-12.1122 0zm-10.6973 4.24016c-0.646063,0 -1.17047,0.529134 -1.17047,1.18347 0,0.65315 0.52441,1.18347 1.17047,1.18347l13.7114 0c0.647244,0 1.17047,-0.530315 1.17047,-1.18347 0,-0.654331 -0.523229,-1.18347 -1.17047,-1.18347l-13.7114 0zm2.14488 4.3878c-0.646063,0 -1.17047,0.530315 -1.17047,1.18347 0,0.65315 0.52441,1.18347 1.17047,1.18347l11.0669 0c0.646063,0 1.17047,-0.530315 1.17047,-1.18347 0,-0.65315 -0.52441,-1.18347 -1.17047,-1.18347l-11.0669 0zm-6.53268 0c-0.646063,0 -1.17047,0.530315 -1.17047,1.18347 0,0.65315 0.52441,1.18347 1.17047,1.18347l3.21732 0c0.646063,0 1.17047,-0.530315 1.17047,-1.18347 0,-0.65315 -0.52441,-1.18347 -1.17047,-1.18347l-3.21732 0zm5.03977 3.62481c-0.646063,0 -1.17047,0.529134 -1.17047,1.18347 0,0.65315 0.52441,1.18228 1.17047,1.18228l2.1815 0c0.646063,0 1.17047,-0.529134 1.17047,-1.18228 0,-0.654331 -0.52441,-1.18347 -1.17047,-1.18347l-2.1815 0zm56.5689 -6.43465l11.3728 0.0106299 -0.501969 2.62795 -11.4024 0c-0.240945,1.31339 -0.0637796,2.25945 0.544489,2.83347 0.602363,0.575197 1.7374,0.862205 3.39921,0.862205l6.75237 0 -0.501969 2.62677 -6.95197 0c-1.53071,0 -2.7189,-0.101575 -3.55748,-0.301181 -0.837402,-0.20315 -1.59803,-0.543307 -2.27362,-1.02284 -0.885827,-0.616536 -1.48228,-1.4185 -1.79764,-2.40591 -0.31063,-0.988583 -0.334252,-2.17205 -0.0708662,-3.54567 0.113386,-0.596457 0.258662,-1.15866 0.433465,-1.68543l4.55551 0zm40.8933 -3.25512l-4.4504 0 -1.72323 9.64016 4.4504 0c1.70197,0 2.93504,-0.346063 3.70276,-1.03701 0.773623,-0.689764 1.32047,-1.95 1.64882,-3.78425 0.325984,-1.82362 0.227953,-3.08386 -0.296457,-3.77835 -0.520866,-0.693308 -1.62992,-1.04055 -3.33189,-1.04055zm-7.83071 -2.57599l8.36693 0c2.94095,0 5.00197,0.622441 6.18071,1.86496 1.17638,1.24724 1.53189,3.17717 1.06417,5.79449 -0.240945,1.34646 -0.681496,2.5063 -1.3252,3.47599 -0.640158,0.967323 -1.47992,1.75394 -2.52638,2.35866 -0.805512,0.47126 -1.63701,0.804331 -2.49095,1.00276 -0.853938,0.196063 -2.00079,0.295276 -3.43465,0.295276l-8.47796 0 2.64331 -14.7921zm-15.1205 5.83111l11.3728 0.0106299 -0.501969 2.62795 -11.4024 0c-0.242126,1.31339 -0.0637796,2.25945 0.543307,2.83347 0.603544,0.575197 1.73858,0.862205 3.4004,0.862205l6.75237 0 -0.501969 2.62677 -6.95197 0c-1.53071,0 -2.7189,-0.101575 -3.55748,-0.301181 -0.837402,-0.20315 -1.59921,-0.543307 -2.2748,-1.02284 -0.885827,-0.616536 -1.4811,-1.4185 -1.79646,-2.40591 -0.31063,-0.988583 -0.334252,-2.17205 -0.0720473,-3.54567 0.114567,-0.596457 0.258662,-1.15866 0.434646,-1.68543l4.55551 0zm-31.4469 -3.1937l-4.4126 0 -0.80315 4.36536 4.6441 0c1.15158,0 2.03858,-0.178347 2.66457,-0.538583 0.624804,-0.357874 1.00394,-0.907087 1.13976,-1.64528 0.145276,-0.790158 -0.0248032,-1.35 -0.511418,-1.68307 -0.485433,-0.333071 -1.39252,-0.498425 -2.72126,-0.498425z"/>
     <g>
      <path id="_313375424" class="fil9" d="M1118.63 140.526l25.6984 0c0.204331,0.00826772 0.408662,0.0129921 0.614174,0.0129921 0.205512,0 0.409843,-0.00472441 0.612992,-0.0129921l1.05945 0 0 -0.0720473c8.23819,-0.837402 14.6658,-7.79528 14.6658,-16.2543 0,-4.41024 -1.74803,-8.41182 -4.58859,-11.3516 2.81811,-2.67166 4.57677,-6.44882 4.57677,-10.6382 0,-8.09292 -6.56103,-14.6539 -14.6539,-14.6539l-27.9673 0c0.308268,5.31142 4.7504,9.5256 10.1858,9.5256l17.7732 0 0.00826772 0c2.83229,0 5.12835,2.29606 5.12835,5.12835 0,2.83229 -2.29606,5.12717 -5.12835,5.12717l-0.00826772 0 -17.7732 0 0 -4.73977c-5.63504,0 -10.2035,4.52835 -10.2035,10.115l0 27.8138zm26.3126 -22.0441c3.15827,0 5.71772,2.56063 5.71772,5.71772 0,2.57599 -1.70315,4.75394 -4.04528,5.46969l0 0.337795 -18.0118 0 0 -8.32914 0 -0.00826772 0 -0.00826772 0 -0.239764 0.00944882 0c0.126378,-1.6441 1.50118,-2.93977 3.17835,-2.93977l0.00826772 0 13.1303 0 0.0129921 0z"/>
      <path id="_313375496" class="fil9" d="M1167.45 87.5564l0 27.9768c0,5.58662 4.56851,10.115 10.2035,10.115l0 -27.9768c0,-5.58662 -4.56851,-10.115 -10.2035,-10.115zm10.2165 42.0815l21.6591 0 0 0.0885827c5.63504,0 10.2035,4.52835 10.2035,10.115l-42.0662 0c0,-5.58662 4.56851,-10.115 10.2035,-10.115l0 -0.0885827z"/>
      <g>
       <path id="_313375136" class="fil19" d="M1255.71 87.5564l-10.1858 0c0.308268,5.31142 4.7504,9.5256 10.1858,9.5256l0 -9.5256z"/>
       <path id="_313372928" class="fil9" d="M1255.71 140.139l0 -37.9288c-5.63504,0 -10.2035,4.52835 -10.2035,10.1138l0 16.9583 -17.7815 0c-2.34213,-0.715748 -4.04528,-2.8937 -4.04528,-5.46969l0 -26.1414c0,-5.58662 -4.75512,-10.115 -10.6217,-10.115l0 36.6969 0.00708662 0c0.218504,8.25945 6.56575,14.9917 14.6599,15.8138l1.05827 0.0720473c8.863,0.327166 18.0083,0 26.9268,0z"/>
      </g>
     </g>
    </g>
   </g>
  </g>
 </g>
</svg>
